<?xml version="1.0" encoding="UTF-8"?>
<svg version="1.1" viewBox="0 0 2048 596" width="1800" height="524" xmlns="http://www.w3.org/2000/svg">
<path transform="translate(152,4)" d="m0 0 10 2 83 22 8 3-12 14 180 180 9 13 8 16 5 15 3 17v21l-3 17-6 18-8 15-10 13-9 9-7 8-24 24-7 8-25 25-7-6-135-135-7-8-10-10-2-1 1-4 20-20 10-6 10-3h14l12 4 10 7 82 82 7-6 9-13 5-12 2-11v-11l-3-14-8-16-9-10-44-44-7-8-95-95-7-8-4-2-11 11h-2l-25-94z" fill="#0D8CF4"/>
<path transform="translate(165,132)" d="m0 0 7 6 11 11 7 10 4 8 2 7 1 14-3 14-7 14-47 47-7 10-4 9-2 11 1 13 5 13 7 9 174 174 9-9 5 12 21 57 10 27v2l-11-1-92-16 2-4 7-9-2-4-105-105v-2h-2l-7-8-78-78-10-14-8-17-4-13-2-12v-23l3-16 6-16 7-13 10-13 18-18 7-8 25-25 7-8 26-26 7-8z" fill="#0D8CF4"/>
<path transform="translate(776,114)" d="m0 0h7l1 135 47-47 11-7 12-4 6-1h12l16 4 10 6 6 5-2 4-70 70 1 3 8 7 13 13 7 8 12 12 7 8 12 12 7 8 11 11 7 8 9 9v2l-12 9-12 6-7 2h-16l-11-4-10-6-11-10-7-8-16-17-11-12-8-9-8-3-8 2-4 4-1 3-2 23-4 12-8 11-8 6-11 5-16 3h-6v-243l3-12 5-9 7-8 10-6 14-4z" fill="#074064"/>
<path transform="translate(1022,190)" d="m0 0h34l16 2 16 5 16 8 14 10 12 12 9 13 8 16 4 12 2 11v29l-4 18-5 12-8 14-8 10-12 12-10 7-17 9-17 5-14 2h-38l-14-2-16-5-14-7-14-10-13-13-9-13-8-16-4-13-2-11v-27l4-18 7-17 10-15 11-12 12-10 14-8 12-5 16-4zm3 54-14 3-11 6-11 11-5 8-4 13v17l4 13 6 9 5 6 10 7 12 5 6 1h33l12-3 10-5 10-9 7-11 4-12v-18l-4-13-6-9-5-6-10-7-9-4-11-2z" fill="#074064"/>
<path transform="translate(612,190)" d="m0 0h34l16 3 12 5 11 7 12 12 8 14 4 13 1 13-2 15-5 13-8 11-9 9-13 8-14 5-12 2h-13l-12-2-10-4-12-9-8-9-6-12-3-14v-4l63-1 5-2 3-4v-8l-5-5h-41l-12 4-10 7-7 7-7 14-2 9v14l4 13 6 10 4 5 10 7 12 5 6 1 50 1 13 4 10 6 10 9 7 10 4 11 1 4v10h-98l-18-3-16-6-13-7-14-11-8-8-11-15-9-19-4-16-1-7v-22l3-17 6-16 6-11 8-11 11-12 15-11 16-8 16-5z" fill="#074064"/>
<path transform="translate(1468,190)" d="m0 0h35l16 3 12 5 11 7 10 10 9 14 4 12 1 5v20l-3 11-7 14-11 12-10 7-13 6-11 3-8 1h-13l-14-3-12-6-12-11-6-9-4-9-2-10v-6l63-1 6-3 2-3v-7l-3-5-2-1h-42l-11 4-9 6-5 4-7 10-4 10-1 5v17l4 13 7 11 9 8 10 5 11 3 51 1 13 4 10 6 10 9 7 11 4 11 1 5v8h-98l-14-2-16-5-14-7-11-8-10-9-9-10-9-14-6-14-4-15-1-6v-27l4-18 7-17 10-15 11-12 12-10 16-9 13-5 13-3z" fill="#074064"/>
<path transform="translate(1655,190)" d="m0 0h105l4 1v9l-4 13-6 10-12 12-14 7-7 2-11 1-59 1-5 5v8l5 5 3 1 52 1 14 4 12 6 10 8 7 7 7 11 4 9 2 8 1 16-3 16-5 12-9 12-10 9-12 7-11 4-12 2h-115l-1-2 2-13 5-12 7-9 7-7 11-7 9-3 5-1 66-1 6-6v-9l-4-5-2-1-50-1-14-3-12-5-11-7-7-6-9-12-5-11-3-16 1-16 4-13 6-11 9-10 9-8 16-8 11-3z" fill="#074065"/>
<path transform="translate(1242,190)" d="m0 0h107l2 1v9l-4 13-6 10-12 12-14 7-7 2-11 1-59 1-5 5v8l5 5 3 1 52 1 14 4 12 6 10 8 7 7 7 11 4 9 2 8 1 16-3 16-5 12-9 12-10 9-12 7-11 4-12 2h-115l-1-2 2-13 5-12 7-9 7-7 11-7 9-3 5-1 66-1 6-6v-9l-4-5-2-1-50-1-14-3-12-5-11-7-7-6-9-12-5-11-3-16 1-16 4-13 6-11 9-10 9-8 16-8 11-3z" fill="#074065"/>
<path transform="translate(1937,190)" d="m0 0h27l17 3 15 6 13 9 12 12 9 14 5 12 3 15v136l-15-1-13-4-10-6-7-7-7-14-2-10-1-88-3-9-4-6-8-5-3-1h-30l-8 4-5 5-4 7-1 5-1 86-3 13-6 12-4 5-8 6-11 5-15 3h-7v-136l4-18 8-16 8-10 10-10 14-9 13-5 9-2z" fill="#074064"/>
<path transform="translate(1829,191)" d="m0 0h11v162l-4 16-6 10-8 8-12 6-12 3-12 1v-164l3-13 6-11 4-5 10-7 10-4z" fill="#074064"/>
<path transform="translate(1806,113)" d="m0 0h14l10 5 7 7 4 11v8l-3 10-5 7-10 6-4 1h-13l-10-5-7-8-3-8v-14l5-10 9-8z" fill="#074065"/>
</svg>
