<svg width="51" height="50" viewBox="0 0 51 50" fill="none" xmlns="http://www.w3.org/2000/svg">
<path d="M3.53906 8.89544V4.94753C3.53906 4.44121 3.74005 3.95561 4.09787 3.59739C4.4557 3.23918 4.94108 3.03766 5.4474 3.03711H9.39531M9.39531 46.9621H5.4474C4.94108 46.9616 4.4557 46.76 4.09787 46.4018C3.74005 46.0436 3.53906 45.558 3.53906 45.0517V41.1038M3.53906 16.2142V22.0725M3.53906 27.9267V33.785M47.462 16.2142V22.0725M16.7141 3.03711H22.5724M28.4266 3.03711H34.2849M41.6036 3.03711H45.5516C46.0582 3.03711 46.5442 3.23839 46.9024 3.59666C47.2607 3.95493 47.462 4.44085 47.462 4.94753V8.89544M22.5724 46.9621H16.7141" stroke="#555454" stroke-width="2" stroke-linecap="round" stroke-linejoin="round"/>
<path d="M38.1736 37.6745L47.4611 46.962M29.8903 41.1036C31.4414 41.1243 32.9812 40.8367 34.4202 40.2574C35.8592 39.6781 37.1689 38.8188 38.2731 37.7292C39.3773 36.6397 40.254 35.3416 40.8524 33.9104C41.4508 32.4792 41.759 30.9434 41.759 29.3922C41.759 27.8409 41.4508 26.3051 40.8524 24.874C40.254 23.4428 39.3773 22.1447 38.2731 21.0552C37.1689 19.9656 35.8592 19.1062 34.4202 18.527C32.9812 17.9477 31.4414 17.66 29.8903 17.6807C26.8113 17.7218 23.8723 18.9738 21.7095 21.1656C19.5466 23.3575 18.334 26.3129 18.334 29.3922C18.334 32.4715 19.5466 35.4269 21.7095 37.6188C23.8723 39.8106 26.8113 41.0626 29.8903 41.1036Z" stroke="#555454" stroke-width="2" stroke-linecap="round" stroke-linejoin="round"/>
</svg>
